# Exported from Figuro at https://www.figuro.io

mtllib newscene.mtl
o cylinder10
v 48.767707339512654 -83 116.1911307107586
v -0.180224481425995 -83 125.9274797075996
v -0.31823534617709015 256.41437869067414 126.51962696503948
v 48.62969647476156 256.41437869067414 116.78327796819848
v 90.26376025482027 -83 88.46435459478121
v 90.12574939006917 256.41437869067414 89.05650185222109
v 117.99053637079767 -83 46.96830167947359
v 117.85252550604658 256.41437869067414 47.56044893691347
v 127.72688536763867 -83 -1.979630141465058
v 127.58887450288758 256.41437869067414 -1.3874828840251816
v 117.99053637079767 -83 -50.92756196240371
v 117.85252550604658 256.41437869067414 -50.33541470496383
v 90.26376025482028 -83 -92.42361487771133
v 90.12574939006919 256.41437869067414 -91.83146762027145
v 48.76770733951267 -83 -120.15039099368873
v 48.62969647476157 256.41437869067414 -119.55824373624885
v -0.18022448142597935 -83 -129.88673999052975
v -0.3182353461770745 256.41437869067414 -129.29459273308987
v -49.12815630236463 -83 -120.15039099368875
v -49.266167167115725 256.41437869067414 -119.55824373624887
v -90.62420921767226 -83 -92.42361487771136
v -90.76222008242335 256.41437869067414 -91.83146762027148
v -118.35098533364963 -83 -50.927561962403786
v -118.48899619840073 256.41437869067414 -50.33541470496391
v -128.08733433049065 -83 -1.9796301414650892
v -128.22534519524174 256.41437869067414 -1.387482884025213
v -118.35098533364965 -83 46.96830167947361
v -118.48899619840074 256.41437869067414 47.56044893691349
v -90.62420921767229 -83 88.46435459478118
v -90.76222008242338 256.41437869067414 89.05650185222106
v -49.12815630236472 -83 116.19113071075857
v -49.26616716711582 256.41437869067414 116.78327796819845
# 32 vertices
vt 0.1904988567949713 1.00390625
vt -0.000704001880570293 1.00390625
vt -0.0012431068210042584 2.0016186667604456
vt 0.18995975185453734 2.0016186667604456
vt 0.3525928134953917 1.00390625
vt 0.1904988567949713 1.00390625
vt 0.18995975185453734 2.0016186667604456
vt 0.3520537085549577 2.0016186667604456
vt -0.1834699284354437 1.00390625
vt -0.3455638851358641 1.00390625
vt -0.34787696036023863 2.0016186667604456
vt -0.18578300365981823 2.0016186667604456
vt 0.007732930240097882 1.00390625
vt -0.1834699284354437 1.00390625
vt -0.18578300365981823 2.0016186667604456
vt 0.005419855015723366 2.0016186667604456
vt 0.19893578891563948 1.00390625
vt 0.007732930240097882 1.00390625
vt 0.005419855015723366 2.0016186667604456
vt 0.19662271369126497 2.0016186667604456
vt 0.3610297456160599 1.00390625
vt 0.19893578891563948 1.00390625
vt 0.19662271369126497 2.0016186667604456
vt 0.35871667039168537 2.0016186667604456
vt -0.19049885679497136 1.00390625
vt -0.35259281349539173 1.00390625
vt -0.35205370855495777 2.0016186667604456
vt -0.1899597518545374 2.0016186667604456
vt 0.0007040018805702319 1.00390625
vt -0.19049885679497136 1.00390625
vt -0.1899597518545374 2.0016186667604456
vt 0.0012431068210041973 2.0016186667604456
vt 0.19190686055611184 1.00390625
vt 0.0007040018805702319 1.00390625
vt 0.0012431068210041973 2.0016186667604456
vt 0.1924459654965458 2.0016186667604456
vt 0.35400081725653226 1.00390625
vt 0.19190686055611184 1.00390625
vt 0.1924459654965458 2.0016186667604456
vt 0.35453992219696623 2.0016186667604456
vt -0.1989357889156398 1.00390625
vt -0.36102974561606 1.00390625
vt -0.3587166703916855 2.0016186667604456
vt -0.19662271369126527 2.0016186667604456
vt -0.007732930240098005 1.00390625
vt -0.1989357889156398 1.00390625
vt -0.19662271369126527 2.0016186667604456
vt -0.005419855015723488 2.0016186667604456
vt 0.1834699284354438 1.00390625
vt -0.007732930240098005 1.00390625
vt -0.005419855015723488 2.0016186667604456
vt 0.1857830036598183 2.0016186667604456
vt 0.345563885135864 1.00390625
vt 0.1834699284354438 1.00390625
vt 0.1857830036598183 2.0016186667604456
vt 0.3478769603602385 2.0016186667604456
vt -0.1919068605561122 1.00390625
vt -0.3540008172565324 1.00390625
vt -0.35453992219696634 2.0016186667604456
vt -0.19244596549654616 2.0016186667604456
vt -0.000704001880570293 1.00390625
vt -0.1919068605561122 1.00390625
vt -0.19244596549654616 2.0016186667604456
vt -0.0012431068210042584 2.0016186667604456
vt -0.0012431068210042584 0.5057827071678145
vt -0.19244596549654616 0.5438153204367249
vt -0.35453992219696634 0.6521230396397615
vt -0.0012431068210042584 0.5057827071678145
vt -0.35453992219696634 0.6521230396397615
vt -0.4628476414000029 0.8142169963401817
vt -0.0012431068210042584 0.5057827071678145
vt -0.4628476414000029 0.8142169963401817
vt -0.5008802546689131 1.0054198550157234
vt -0.0012431068210042584 0.5057827071678145
vt -0.5008802546689131 1.0054198550157234
vt -0.46284764140000284 1.1966227136912653
vt -0.0012431068210042584 0.5057827071678145
vt -0.46284764140000284 1.1966227136912653
vt -0.35453992219696623 1.3587166703916855
vt -0.0012431068210042584 0.5057827071678145
vt -0.35453992219696623 1.3587166703916855
vt -0.1924459654965458 1.4670243895947221
vt -0.0012431068210042584 0.5057827071678145
vt -0.1924459654965458 1.4670243895947221
vt -0.0012431068210041973 1.5050570028636323
vt -0.0012431068210042584 0.5057827071678145
vt -0.0012431068210041973 1.5050570028636323
vt 0.1899597518545374 1.4670243895947221
vt -0.0012431068210042584 0.5057827071678145
vt 0.1899597518545374 1.4670243895947221
vt 0.35205370855495777 1.3587166703916853
vt -0.0012431068210042584 0.5057827071678145
vt 0.35205370855495777 1.3587166703916853
vt 0.46036142775799443 1.196622713691265
vt -0.0012431068210042584 0.5057827071678145
vt 0.46036142775799443 1.196622713691265
vt 0.4983940410269046 1.0054198550157234
vt -0.0012431068210042584 0.5057827071678145
vt 0.4983940410269046 1.0054198550157234
vt 0.46036142775799443 0.8142169963401817
vt -0.0012431068210042584 0.5057827071678145
vt 0.46036142775799443 0.8142169963401817
vt 0.3520537085549577 0.6521230396397614
vt 0.3520537085549577 0.6521230396397614
vt 0.18995975185453734 0.5438153204367246
vt -0.0012431068210042584 0.5057827071678145
vt -0.1919068605561122 1.4538716043389006
vt -0.000704001880570293 1.491904217607811
vt 0.1904988567949713 1.4538716043389008
vt -0.1919068605561122 1.4538716043389006
vt 0.1904988567949713 1.4538716043389008
vt 0.3525928134953917 1.345563885135864
vt -0.1919068605561122 1.4538716043389006
vt 0.3525928134953917 1.345563885135864
vt 0.4609005326984284 1.1834699284354437
vt -0.1919068605561122 1.4538716043389006
vt 0.4609005326984284 1.1834699284354437
vt 0.49893314596733856 0.9922670697599021
vt -0.1919068605561122 1.4538716043389006
vt 0.49893314596733856 0.9922670697599021
vt 0.4609005326984284 0.8010642110843605
vt -0.1919068605561122 1.4538716043389006
vt 0.4609005326984284 0.8010642110843605
vt 0.35259281349539173 0.6389702543839402
vt -0.1919068605561122 1.4538716043389006
vt 0.35259281349539173 0.6389702543839402
vt 0.19049885679497136 0.5306625351809033
vt -0.1919068605561122 1.4538716043389006
vt 0.19049885679497136 0.5306625351809033
vt -0.0007040018805702319 0.4926299219119932
vt -0.1919068605561122 1.4538716043389006
vt -0.0007040018805702319 0.4926299219119932
vt -0.19190686055611184 0.5306625351809033
vt -0.1919068605561122 1.4538716043389006
vt -0.19190686055611184 0.5306625351809033
vt -0.35400081725653226 0.63897025438394
vt -0.1919068605561122 1.4538716043389006
vt -0.35400081725653226 0.63897025438394
vt -0.4623085364595689 0.8010642110843602
vt -0.1919068605561122 1.4538716043389006
vt -0.4623085364595689 0.8010642110843602
vt -0.5003411497284791 0.992267069759902
vt -0.1919068605561122 1.4538716043389006
vt -0.5003411497284791 0.992267069759902
vt -0.46230853645956893 1.1834699284354437
vt -0.46230853645956893 1.1834699284354437
vt -0.3540008172565324 1.345563885135864
vt -0.1919068605561122 1.4538716043389006
# 148 uvs
vn 0.25021978687533125 -0.33459862440602217 0.6040838285812632
vn 3.1174756442986506e-8 -0.3348492171971727 0.6538551596543097
vn 3.1174756442986506e-8 0.33181744946949393 0.6538551596543097
vn 0.25021978687533125 0.33206804226064446 0.6040838285812632
vn 0.4623462723681833 -0.33415540222553436 0.4623461829243132
vn 0.4623462723681833 0.33251126444113227 0.4623461829243132
vn 0.60408486576043 -0.33358702650146216 0.2502201196758293
vn 0.60408486576043 0.3330796401652045 0.2502201196758293
vn 0.6538566949029676 -0.33298002781510344 3.1174976109863785e-8
vn 0.6538566949029676 0.3336866388515632 3.1174976109863785e-8
vn 0.6040843882648436 -0.3324268173327822 -0.2502198741702619
vn 0.6040843882648436 0.33423984933388445 -0.2502198741702619
vn 0.4623457372698197 -0.332011616662194 -0.4623456478262598
vn 0.4623457372698197 0.33465505000447265 -0.4623456478262598
vn 0.25021954137060914 -0.3317976354728425 -0.6040833510877164
vn 0.25021954137060914 0.3348690311938241 -0.6040833510877164
vn -3.117475643373465e-8 -0.33181744946949393 -0.6538551596543097
vn -3.117475643373465e-8 0.3348492171971727 -0.6538551596543097
vn -0.25021978687533125 -0.3320680422606445 -0.6040838285812632
vn -0.25021978687533125 0.33459862440602217 -0.6040838285812632
vn -0.46234627236818326 -0.3325112644411323 -0.4623461829243132
vn -0.46234627236818326 0.33415540222553425 -0.4623461829243132
vn -0.60408486576043 -0.3330796401652046 -0.25022011967582936
vn -0.60408486576043 0.333587026501462 -0.25022011967582936
vn -0.6538566949029675 -0.3336866388515632 -3.1174976239389807e-8
vn -0.6538566949029675 0.33298002781510344 -3.1174976239389807e-8
vn -0.6040843882648433 -0.3342398493338845 0.25021987417026187
vn -0.6040843882648433 0.33242681733278207 0.25021987417026187
vn -0.4623457372698198 -0.3346550500044727 0.46234564782625975
vn -0.4623457372698198 0.33201161666219386 0.46234564782625975
vn -0.25021954137060914 -0.3348690311938241 0.6040833510877164
vn -0.25021954137060914 0.33179763547284247 0.6040833510877164
# 32 normals
usemtl ffffff
f 4/4/4 3/3/3 2/2/2 1/1/1 
f 6/8/6 4/7/4 1/6/1 5/5/5 
f 8/12/8 6/11/6 5/10/5 7/9/7 
f 10/16/10 8/15/8 7/14/7 9/13/9 
f 12/20/12 10/19/10 9/18/9 11/17/11 
f 14/24/14 12/23/12 11/22/11 13/21/13 
f 16/28/16 14/27/14 13/26/13 15/25/15 
f 18/32/18 16/31/16 15/30/15 17/29/17 
f 20/36/20 18/35/18 17/34/17 19/33/19 
f 22/40/22 20/39/20 19/38/19 21/37/21 
f 24/44/24 22/43/22 21/42/21 23/41/23 
f 26/48/26 24/47/24 23/46/23 25/45/25 
f 28/52/28 26/51/26 25/50/25 27/49/27 
f 30/56/30 28/55/28 27/54/27 29/53/29 
f 32/60/32 30/59/30 29/58/29 31/57/31 
f 3/64/3 32/63/32 31/62/31 2/61/2 
f 30/148/30 32/147/32 3/146/3 
f 28/148/28 30/147/30 3/146/3 
f 26/148/26 28/147/28 3/146/3 
f 24/148/24 26/147/26 3/146/3 
f 22/148/22 24/147/24 3/146/3 
f 20/148/20 22/147/22 3/146/3 
f 18/148/18 20/147/20 3/146/3 
f 16/148/16 18/147/18 3/146/3 
f 14/148/14 16/147/16 3/146/3 
f 12/148/12 14/147/14 3/146/3 
f 10/148/10 12/147/12 3/146/3 
f 8/148/8 10/147/10 3/146/3 
f 6/148/6 8/147/8 3/146/3 
f 3/148/3 4/147/4 6/146/6 
f 1/148/1 2/147/2 31/146/31 
f 5/148/5 1/147/1 31/146/31 
f 7/148/7 5/147/5 31/146/31 
f 9/148/9 7/147/7 31/146/31 
f 11/148/11 9/147/9 31/146/31 
f 13/148/13 11/147/11 31/146/31 
f 15/148/15 13/147/13 31/146/31 
f 17/148/17 15/147/15 31/146/31 
f 19/148/19 17/147/17 31/146/31 
f 21/148/21 19/147/19 31/146/31 
f 23/148/23 21/147/21 31/146/31 
f 25/148/25 23/147/23 31/146/31 
f 27/148/27 25/147/25 31/146/31 
f 31/148/31 29/147/29 27/146/27 
# 44 polygons